<svg xmlns="http://www.w3.org/2000/svg" viewBox="0 0 288 69"><g fill="none" fill-rule="evenodd"><path fill="#FFF" d="M53.441 33.54c-.02-7.11 6.567-11.79 14.028-11.548 7.462.242 11.245 3.685 11.245 3.685l-2.56 6.512s-4.452-3.391-9.019-3.44c-2.916-.031-5.666 1.662-5.678 4.177-.012 2.515 2.682 3.096 8.128 4.669 5.445 1.573 10.189 2.775 10.354 10.443.165 7.668-6.839 10.989-13.917 11.303-7.079.315-13.25-4.054-13.25-4.054l2.562-6.39s5.31 3.396 10.799 3.564c3.202.098 5.823-1.5 5.79-3.563-.034-2.063-1.873-3.408-7.126-4.546-5.252-1.137-11.336-3.701-11.356-10.812Zm176.8-1.229c7.905 0 13.36 5.283 13.36 13.393 0 8.108-5.344 13.268-12.803 13.392-7.46.122-12.5-4.411-12.581-13.761-.081-9.438 7.343-13.024 12.024-13.024Zm-23.898-.001.295.002c7.014.123 9.241 2.702 9.241 2.702l-2.115 6.021s-2.227-2.334-5.679-2.334c-3.451 0-5.678 2.703-6.012 6.88-.334 4.177 2.784 6.88 5.456 7.126 2.672.245 6.235-2.335 6.235-2.335l2.115 5.652s-2.227 2.825-8.907 2.948c-7.348.136-12.914-4.177-12.914-13.023s5.566-13.76 12.58-13.637Zm-112.488-.121c5.812.186 7.126 3.808 7.126 3.808l.445-.49v-2.458h7.794v25.555h-7.794v-3.072l-.667-.368s-1.623 3.86-6.57 3.685c-4.945-.174-10.773-3.918-10.465-12.531.308-8.613 4.32-14.315 10.131-14.13Zm47.41 0c5.81.186 7.125 3.808 7.125 3.808l.445-.49v-2.458h7.794v25.555h-7.794v-3.072l-.668-.368s-1.623 3.86-6.569 3.685c-4.946-.174-10.773-3.918-10.465-12.531.308-8.613 4.32-14.315 10.131-14.13Zm-12.562-10.444v6.513s-.548-.261-2.226-.246c-3.89.034-3.34 5.036-3.34 5.036l4.676-.122v6.512h-4.787v19.166h-7.905V31.206s.385-10.112 8.684-10.197c4.304-.045 4.874.702 4.898.736Zm134.164 10.68.33.01c5.677.245 6.68 4.546 6.68 4.546s2.56-4.67 7.904-4.546c8.355.192 8.016 9.337 8.016 9.337l-.11 16.647-8.017.123-.111-16.278s.11-3.44-2.895-3.44c-3.785 0-4.12 5.037-4.12 5.037l.112 14.743h-7.794l-.111-13.76s.495-6.186-2.895-6.02c-3.946.192-4.112 4.296-4.119 4.645v.023l.111 14.866-7.682.123-.223-23.098-.222-2.457h7.014l1.002 3.317s1.782-4.054 7.46-3.808Zm-73.04.501v25.555h-8.017V32.926h8.017Zm-15.03-.614c3.006-.246 4.007.491 4.007.491v8.11s-2.56-1.229-4.23-1.107c-5.351.394-5.122 5.775-5.122 5.775v12.654h-7.57s.096-13.046 0-20.394c-.038-2.862-.335-4.915-.335-4.915h7.349v3.81h.556s2.643-4.203 5.344-4.424ZM96.72 38.944l-.192.002c-2.577.085-4.962 1.711-4.788 7.372.175 5.66 3.031 6.63 5.122 6.512 2.09-.12 4.427-2.114 4.564-6.758.138-4.644-1.933-7.223-4.898-7.126Zm47.409 0-.193.002c-2.576.085-4.962 1.711-4.787 7.372.175 5.66 3.03 6.63 5.122 6.512 2.09-.12 4.427-2.114 4.564-6.758.137-4.644-1.933-7.223-4.899-7.126Zm86.67.002c-3.674.116-4.9 3.317-4.9 6.635 0 3.317 1.284 7.242 5.122 7.126 3.814-.117 4.564-3.686 4.676-6.88.11-3.195-1.002-7.004-4.899-6.88ZM181.587 20.15l8.127.123v7.617h-8.127v-7.74Z"/><path fill="#D92730" d="m42.641 19.289.446.737s-8.833 5.523-16.255 13.269c-6.84 7.138-12.24 16.807-9.13 21.868 5.696 9.272 28.136.018 29.031-.356l.028-.012.334 1.106S33.478 63.449 20.82 67.204C9.365 70.6.01 70.264 0 62.78c-.022-16.364 42.64-43.49 42.64-43.49Zm5.567-3.563S87.186-7.434 97.641 2.457c7.175 6.788-13.026 26.537-13.026 26.537l-.891-.86S95.07 15.179 87.175 8.97C76.882.874 48.653 16.71 48.653 16.71Z"/></g></svg>